<svg width="24" height="24" viewBox="0 0 24 24" fill="none" xmlns="http://www.w3.org/2000/svg">
<path d="M6.94751 3.755C6.94751 3.22457 7.15822 2.71586 7.5333 2.34079C7.90837 1.96572 8.41708 1.755 8.94751 1.755H14.9475C15.4779 1.755 15.9867 1.96572 16.3617 2.34079C16.7368 2.71586 16.9475 3.22457 16.9475 3.755V5.755H20.9475C21.2127 5.755 21.4671 5.86036 21.6546 6.0479C21.8422 6.23543 21.9475 6.48979 21.9475 6.755C21.9475 7.02022 21.8422 7.27458 21.6546 7.46211C21.4671 7.64965 21.2127 7.755 20.9475 7.755H19.8785L19.0115 19.897C18.9756 20.4016 18.7498 20.8738 18.3796 21.2186C18.0094 21.5633 17.5224 21.755 17.0165 21.755H6.87751C6.37165 21.755 5.88458 21.5633 5.51439 21.2186C5.14421 20.8738 4.91843 20.4016 4.88251 19.897L4.01751 7.755H2.94751C2.68229 7.755 2.42794 7.64965 2.2404 7.46211C2.05287 7.27458 1.94751 7.02022 1.94751 6.755C1.94751 6.48979 2.05287 6.23543 2.2404 6.0479C2.42794 5.86036 2.68229 5.755 2.94751 5.755H6.94751V3.755ZM8.94751 5.755H14.9475V3.755H8.94751V5.755ZM6.02151 7.755L6.87851 19.755H17.0175L17.8745 7.755H6.02151ZM9.94751 9.755C10.2127 9.755 10.4671 9.86036 10.6546 10.0479C10.8422 10.2354 10.9475 10.4898 10.9475 10.755V16.755C10.9475 17.0202 10.8422 17.2746 10.6546 17.4621C10.4671 17.6496 10.2127 17.755 9.94751 17.755C9.68229 17.755 9.42794 17.6496 9.2404 17.4621C9.05287 17.2746 8.94751 17.0202 8.94751 16.755V10.755C8.94751 10.4898 9.05287 10.2354 9.2404 10.0479C9.42794 9.86036 9.68229 9.755 9.94751 9.755ZM13.9475 9.755C14.2127 9.755 14.4671 9.86036 14.6546 10.0479C14.8422 10.2354 14.9475 10.4898 14.9475 10.755V16.755C14.9475 17.0202 14.8422 17.2746 14.6546 17.4621C14.4671 17.6496 14.2127 17.755 13.9475 17.755C13.6823 17.755 13.4279 17.6496 13.2404 17.4621C13.0529 17.2746 12.9475 17.0202 12.9475 16.755V10.755C12.9475 10.4898 13.0529 10.2354 13.2404 10.0479C13.4279 9.86036 13.6823 9.755 13.9475 9.755Z" fill="#595959"/>
</svg>
