<svg width="24" height="24" viewBox="0 0 24 24" fill="none" xmlns="http://www.w3.org/2000/svg">
<path d="M1 12C1 11.4989 1.41556 11.0833 1.91667 11.0833H3.75C4.25111 11.0833 4.66667 11.4989 4.66667 12C4.66667 12.5011 4.25111 12.9167 3.75 12.9167H1.91667C1.41556 12.9167 1 12.5011 1 12ZM20.25 12.9167H22.0833C22.5844 12.9167 23 12.5011 23 12C23 11.4989 22.5844 11.0833 22.0833 11.0833H20.25C19.7489 11.0833 19.3333 11.4989 19.3333 12C19.3333 12.5011 19.7489 12.9167 20.25 12.9167ZM11.0833 1.91667V3.75C11.0833 4.25111 11.4989 4.66667 12 4.66667C12.5011 4.66667 12.9167 4.25111 12.9167 3.75V1.91667C12.9167 1.41556 12.5011 1 12 1C11.4989 1 11.0833 1.41556 11.0833 1.91667ZM11.0833 20.25V22.0833C11.0833 22.5844 11.4989 23 12 23C12.5011 23 12.9167 22.5844 12.9167 22.0833V20.25C12.9167 19.7489 12.5011 19.3333 12 19.3333C11.4989 19.3333 11.0833 19.7489 11.0833 20.25ZM4.22667 5.52222L5.52222 6.81778C5.87667 7.17222 6.46333 7.17222 6.81778 6.81778C7.17222 6.46333 7.17222 5.87667 6.81778 5.52222L5.52222 4.22667C5.16778 3.87222 4.58111 3.87222 4.22667 4.22667C3.87222 4.58111 3.86 5.16778 4.22667 5.52222ZM17.1822 18.4778L18.4778 19.7733C18.8322 20.1278 19.4189 20.1278 19.7733 19.7733C20.1278 19.4189 20.1278 18.8322 19.7733 18.4778L18.4778 17.1822C18.1233 16.8278 17.5367 16.8278 17.1822 17.1822C16.8278 17.5367 16.8278 18.1233 17.1822 18.4778ZM18.4778 4.22667L17.1822 5.52222C16.8278 5.87667 16.8278 6.46333 17.1822 6.81778C17.5367 7.17222 18.1233 7.17222 18.4778 6.81778L19.7733 5.52222C20.1278 5.16778 20.1278 4.58111 19.7733 4.22667C19.4189 3.86 18.8322 3.86 18.4778 4.22667ZM5.52222 17.1822L4.22667 18.4778C3.87222 18.8322 3.87222 19.4189 4.22667 19.7733C4.58111 20.1278 5.16778 20.1278 5.52222 19.7733L6.81778 18.4778C7.17222 18.1233 7.17222 17.5367 6.81778 17.1822C6.46333 16.8278 5.87667 16.8278 5.52222 17.1822ZM18.1111 12C18.1111 15.3733 15.3733 18.1111 12 18.1111C8.62667 18.1111 5.88889 15.3733 5.88889 12C5.88889 8.62667 8.62667 5.88889 12 5.88889C15.3733 5.88889 18.1111 8.62667 18.1111 12Z" fill="#DFDFDF"/>
</svg>
